<?xml version="1.0" encoding="utf-8"?>
<!-- Generator: Adobe Illustrator 19.2.0, SVG Export Plug-In . SVG Version: 6.00 Build 0)  -->
<svg version="1.2" baseProfile="tiny" id="Layer_1" xmlns="http://www.w3.org/2000/svg" xmlns:xlink="http://www.w3.org/1999/xlink"
	 x="0px" y="0px" viewBox="0 0 380.7 452.3" xml:space="preserve">
<g>
	<path fill="#326CE5" d="M210.4,4.6L326,60.2c12.7,6.1,21.9,17.7,25,31.4l28.5,125c3.1,13.7-0.2,28.1-8.9,39.2l-80,100.3
		c-8.8,11-22.1,17.4-36.2,17.4H126.2c-14.1,0-27.4-6.4-36.2-17.4l-80-100.3c-8.8-11-12.1-25.4-8.9-39.2l28.5-125
		c3.1-13.7,12.4-25.3,25-31.4L170.3,4.6C183-1.5,197.8-1.5,210.4,4.6z"/>
	<path fill="#5A31AD" d="M170.3,319.7l-67.7-32.6c-12.7-6.1-21.9-17.7-25-31.4l-16.7-73.2c-3.1-13.7,0.2-28.1,8.9-39.2l46.8-58.7
		c8.8-11,22.1-17.4,36.2-17.4h75.1c14.1,0,27.4,6.4,36.2,17.4l46.8,58.7c8.8,11,12.1,25.4,8.9,39.2l-16.7,73.2
		c-3.1,13.7-12.4,25.3-25,31.4l-67.7,32.6C197.8,325.8,183,325.8,170.3,319.7z"/>
	<rect x="180.8" y="184.6" fill="#400078" width="19.2" height="19.2"/>
</g>
<text transform="matrix(1 0 0 1 94.5396 430.5262)" fill="#400078" font-family="'AvenirNext-Medium'" font-size="50px">b</text>
<text transform="matrix(1 0 0 1 126.339 430.5262)" fill="#400078" font-family="'AvenirNext-Medium'" font-size="50px">i</text>
<text transform="matrix(1 0 0 1 139.2882 430.5262)" fill="#400078" font-family="'AvenirNext-Medium'" font-size="50px">g</text>
<text transform="matrix(1 0 0 1 170.8878 430.5262)" fill="#400078" font-family="'AvenirNext-Medium'" font-size="50px">k</text>
<text transform="matrix(1 0 0 1 196.6378 430.5262)" fill="#400078" font-family="'AvenirNext-Medium'" font-size="50px">u</text>
<text transform="matrix(1 0 0 1 225.7374 430.5262)" fill="#400078" font-family="'AvenirNext-Medium'" font-size="50px">b</text>
<text transform="matrix(1 0 0 1 257.5362 430.5262)" fill="#400078" font-family="'AvenirNext-Medium'" font-size="50px">e</text>
</svg>
